<?xml version="1.0" encoding="UTF-8"?>
<svg version="1.1" viewBox="0 0 2048 818" width="1991" height="796" xmlns="http://www.w3.org/2000/svg">
<path transform="translate(444,1)" d="m0 0h2v777l27-6 10-3h3v-462l10-7 43-28 43-28 20-13 5-2 1 473 14-12 22-22 9-11 10-12 14-20 12-20 13-25 11-27 8-25 6-25 4-24 2-19v-53l-4-33-6-28-8-26-7-19-9-20-12-23-12-19-10-14-11-14-12-14-7-7-6-7-8-7-11-10-14-11-18-13-25-15-19-10-29-12-33-11v-33l8 1 27 8 26 10 26 12 25 14 15 10 14 10 14 11 15 13 16 15 14 15 9 11 14 18 14 21 9 15 14 27 11 26 10 30 7 29 5 32 2 23v43l-3 31-5 29-7 27-9 27-11 26-11 22-15 25-12 17-10 13-11 13-11 12-23 23-11 9-15 12-20 14-22 13-23 12-25 11-33 11-28 7-30 5-30 3-47-1-27-3-27-5-24-6-33-11-25-11-20-10-20-12-12-8-14-10-16-13-14-12-25-25-9-11-10-12-13-18-12-19-9-16-8-15-12-28-11-33-6-24-5-29-3-31v-42l3-30 5-29 7-28 10-29 11-26 13-25 11-18 13-19 11-14 9-11 12-13 23-23 11-9 16-13 27-18 19-11 15-8 25-11 28-10 26-7h5v33l-29 9-24 9-22 10-23 13-24 16-13 10-13 11-12 11-16 16-9 11-10 12-13 18-15 25-11 21-10 24-10 30-6 25-4 25-2 20v49l3 27 5 27 7 26 9 25 11 25 13 24 18 27 10 13 12 14 11 12 13 13 8 7 6 5 1-443 26-17 69-45 20-13 6-3v587l17 4 23 5 20 3 24 2h36v-522l-21-14-40-26-15-10-1-1v-131l11-8 16-10 27-18 16-10 27-18 16-10z" fill="#CA262B"/>
<path transform="translate(1301,199)" d="m0 0h191l33 2 30 4 20 5 16 6 14 8 10 9 6 7 7 14 4 16 1 9v66l-3 17-4 10-8 11-13 10-3 4 1 5 4 4 11 7 9 10 6 13 3 14 1 13v54l-1 16-4 18-8 16-11 12-14 9-15 7-22 6-24 4-35 3h-204l-9-4-6-9-1-4v-375l4-9 7-6zm138 88-5 5v63l4 4 2 1h31l10-3 3-4v-59l-4-5-5-2zm0 152-5 5v72l4 4 3 1h29l10-2 5-4 1-3v-65l-4-6-7-2z" fill="#CA262B"/>
<path transform="translate(1840,192)" d="m0 0h48l30 2 28 4 24 6 19 7 13 7 13 10 7 7 9 14 5 14 2 11v50l-4 8-7 4-3 1h-125l-5-3-4-5-1-4-1-37-4-4-4-1h-31l-6 3-2 5v42l3 8 7 6 16 7 26 7 52 13 27 9 23 11 12 8 10 9 7 7 8 13 5 12 3 16v71l-3 19-5 14-7 11-8 9-14 10-15 7-19 6-25 5-27 3-16 1h-70l-34-3-24-4-19-5-16-6-15-8-10-8-9-9-8-14-4-11-2-12v-51l4-8 8-5 4-1h123l8 4 3 5 1 38 2 5 5 2 6 1h22l9-2 3-3v-49l-4-6-8-6-14-6-30-8-48-12-21-7-20-9-14-8-15-12-9-11-7-12-5-15-1-6v-80l4-18 8-16 8-10 9-8 13-8 16-7 21-6 21-4 29-3z" fill="#CA262B"/>
<path transform="translate(901,199)" d="m0 0h185l32 2 29 4 21 5 19 7 15 9 12 11 7 10 5 10 4 15 1 7v110l-3 16-5 13-7 11-12 12-11 7-15 7-20 6-21 4-26 3-15 1-51 1-6 2-3 3-1 2-1 111-2 8-4 6-5 4-6 2h-118l-10-5-5-8-1-4v-374l3-8 6-7zm140 91-5 3-2 3v77l4 4 8 2 24-1 8-3 2-3 1-12v-61l-3-5-5-3-5-1z" fill="#CA262B"/>
<path transform="translate(1693,655)" d="m0 0h14l7 14 20 45 2-3 19-42 6-13 1-1h13v78h-13l-1-48-18 40-4 8h-10l-17-38-5-11-1 49h-13z" fill="#26181C"/>
<path transform="translate(1043,655)" d="m0 0h13l8 16 18 40 2 3 19-42 7-16 1-1h13l1 1v77h-13l-1-50-20 45-3 5h-9l-8-16-15-34-1 50h-13v-77z" fill="#24181B"/>
<path transform="translate(1249,655)" d="m0 0h31l10 2 7 4 5 6 1 3v12l-4 6-5 4h-2v2l5 2 5 5 3 6v10l-4 8-6 5-8 3h-39v-77zm12 11v22h21l5-3 3-4v-8l-4-5-5-2zm0 33v23l1 1h20l6-3 4-5v-8l-3-5-6-3z" fill="#25181C"/>
<path transform="translate(943,655)" d="m0 0h29l10 2 8 5 5 6 2 7v8l-4 10-7 6-6 3 13 22 5 9h-16l-14-24-3-5v-2h-10v31h-13v-77zm12 11v26h18l8-4 2-4v-11l-4-5-5-2z" fill="#25181C"/>
<path transform="translate(1342,655)" d="m0 0h15l4 10 20 56 4 12h-14l-6-15h-31l-6 15h-14l10-29 17-47zm7 17-12 33v2h25l-11-33z" fill="#22181B"/>
<path transform="translate(1483,655)" d="m0 0h15l5 12 18 51 5 15h-14l-6-15h-31l-5 14-1 1h-14l12-34 15-42zm7 17-12 34v1h25l-3-10-9-25z" fill="#22181B"/>
<path transform="translate(1165,655)" d="m0 0h14l4 9 20 56 4 11v2h-14l-5-14v-2l-32 1-5 14-1 1h-13l3-11 20-56 4-10zm6 18-11 31v3h24l-3-11-8-23z" fill="#22181B"/>
<path transform="translate(2e3 655)" d="m0 0h14l4 9 18 50 6 17v2h-14l-5-14v-2l-32 1-5 15h-14l3-11 18-50 6-16zm7 17-5 12-7 20v3h24l-2-9-9-26z" fill="#22181B"/>
<path transform="translate(1589,654)" d="m0 0 13 1 8 4 7 8 2 9h-14l-3-5v-2l-5-2h-12l-5 5v8l4 4 23 8 8 5 4 6 1 11-3 9-7 7-11 4h-14l-10-4-6-5-3-5-1-8h14l3 6 3 3 3 1h10l6-4 2-7-2-5-6-4-20-6-8-5-4-6-1-4v-8l3-8 5-5 6-4z" fill="#26191C"/>
<path transform="translate(1873,654)" d="m0 0 12 1 10 5 5 6 2 5v5h-14l-3-6-5-3h-11l-4 2-2 4v6l5 5 11 4 14 5 8 7 2 5v12l-4 8-7 6-9 3h-14l-11-4-7-7-2-5v-6h14l3 7 5 3h11l6-4 1-2v-8l-5-5-24-8-6-4-5-8v-12l4-8 6-5 7-3z" fill="#24181B"/>
<path transform="translate(876,655)" d="m0 0h29l11 2 9 6 4 7 1 3v12l-4 8-7 6-11 3h-19v31h-13zm13 11v25h19l6-3 3-6v-7l-3-6-7-3z" fill="#26191C"/>
<path transform="translate(1635,655)" d="m0 0h42l1 1v9l-1 1h-29v23l9-1h17v11h-26v24h30v10h-44v-77z" fill="#2D191C"/>
<path transform="translate(1792,655)" d="m0 0h43v11h-30v23l18-1h8l1 1v10h-27v24h30v10h-43z" fill="#22181B"/>
<path transform="translate(1914,655)" d="m0 0h54l1 1-1 10h-20v67h-13v-67h-21z" fill="#21181B"/>
<path transform="translate(1427,655)" d="m0 0h12v64l-4 8-9 6-3 1h-13l-9-4-5-6-3-8 1-5h12l4 9 5 2 6-1 3-3 1-2 1-60z" fill="#21181B"/>
<path transform="translate(1013,655)" d="m0 0h12l1 1v77h-13z" fill="#29191C"/>
</svg>
